<?xml version="1.0" encoding="UTF-8"?>
<svg width="86px" height="25px" viewBox="0 0 86 25" version="1.1" xmlns="http://www.w3.org/2000/svg" xmlns:xlink="http://www.w3.org/1999/xlink">
    <!-- Generator: Sketch 54.1 (76490) - https://sketchapp.com -->
    <title>sat2</title>
    <desc>Created with Sketch.</desc>
    <g id="Page-1" stroke="none" stroke-width="1" fill="none" fill-rule="evenodd">
        <g id="Onboard" transform="translate(-145.000000, -53.000000)" fill="#000000" fill-rule="nonzero">
            <g id="sat2" transform="translate(145.000000, 53.000000)">
                <path d="M4.66226511,18.7757909 C4.66226511,19.3030746 4.77162579,19.7558441 4.99035043,20.1341128 C5.20907507,20.5123815 5.49111051,20.8218695 5.83646521,21.062586 C6.18181991,21.3033024 6.57897185,21.4809715 7.02793296,21.5955983 C7.47689407,21.7102252 7.94311592,21.7675378 8.42661249,21.7675378 C8.77196719,21.7675378 9.13458418,21.727419 9.51447435,21.6471802 C9.89436452,21.5669414 10.239714,21.4408537 10.5505333,21.2689133 C10.8613525,21.096973 11.1203646,20.8677227 11.3275775,20.5811554 C11.5347903,20.2945882 11.6383951,19.9335189 11.6383951,19.4979367 C11.6383951,18.7643246 11.14915,18.2141238 10.170645,17.8473177 C9.19214002,17.4805117 7.82800943,17.1137111 6.07821229,16.7469051 C5.36447925,16.5864274 4.66802439,16.3972959 3.98882682,16.1795048 C3.30962924,15.9617137 2.70526759,15.6751508 2.17572372,15.3198074 C1.64617985,14.9644641 1.22024878,14.5174259 0.897917725,13.9786795 C0.575586673,13.4399331 0.414423565,12.7808384 0.414423565,12.0013755 C0.414423565,10.8551066 0.638900752,9.91518019 1.08786186,9.18156809 C1.53682297,8.44795598 2.12967297,7.86909887 2.86642966,7.44497937 C3.60318635,7.02085987 4.43202519,6.72283442 5.35297105,6.55089409 C6.27391691,6.37895375 7.21787226,6.29298487 8.18486541,6.29298487 C9.15185857,6.29298487 10.0900581,6.38468501 10.9994921,6.56808803 C11.9089262,6.75149106 12.7204975,7.06097902 13.4342306,7.49656121 C14.1479636,7.9321434 14.7408136,8.51100052 15.2127984,9.23314993 C15.6847831,9.95529935 15.9668186,10.8665695 16.0589132,11.9669876 L11.396648,11.9669876 C11.3275771,11.0270471 10.9707159,10.3908774 10.3260538,10.0584594 C9.68139173,9.72604144 8.92162279,9.55983494 8.04672423,9.55983494 C7.77044047,9.55983494 7.47113755,9.57702871 7.1488065,9.61141678 C6.82647545,9.64580485 6.53292836,9.72031121 6.26815642,9.8349381 C6.00338449,9.94956499 5.7789073,10.1157715 5.59471813,10.3335626 C5.41052896,10.5513537 5.31843575,10.8436479 5.31843575,11.2104539 C5.31843575,11.6460361 5.47959886,12.0013741 5.80192991,12.2764787 C6.12426096,12.5515832 6.54443621,12.7751023 7.06246826,12.9470426 C7.5805003,13.118983 8.17335031,13.273727 8.84103606,13.4112792 C9.50872181,13.5488315 10.1879092,13.6978442 10.8786186,13.8583219 C11.5923516,14.0187995 12.2888065,14.2136623 12.9680041,14.4429161 C13.6472016,14.6721699 14.2515633,14.9759266 14.7811072,15.3541953 C15.310651,15.7324641 15.7365821,16.2024273 16.0589132,16.764099 C16.3812442,17.3257708 16.5424073,18.0192531 16.5424073,18.8445667 C16.5424073,20.013761 16.3064185,20.9938062 15.8344337,21.7847318 C15.362449,22.5756573 14.7465757,23.211827 13.9867953,23.69326 C13.227015,24.1746929 12.3578854,24.5128372 11.3793804,24.7077029 C10.4008754,24.9025686 9.40511764,25 8.3920772,25 C7.3560131,25 6.34298785,24.8968373 5.35297105,24.6905089 C4.36295425,24.4841805 3.48231298,24.140305 2.71102082,23.6588721 C1.93972866,23.1774391 1.30658788,22.5412694 0.811579482,21.7503439 C0.316571082,20.9594183 0.046047293,19.9679106 0,18.7757909 L4.66226511,18.7757909 Z M19.2016252,12.2420908 C19.2706961,11.0958219 19.5584874,10.1444329 20.0650076,9.38789546 C20.5715278,8.63135798 21.2161803,8.02384457 21.9989843,7.565337 C22.7817882,7.10682944 23.6624295,6.7801477 24.6409345,6.58528198 C25.6194395,6.39041627 26.6036856,6.29298487 27.5937024,6.29298487 C28.4916246,6.29298487 29.401045,6.35602871 30.3219909,6.48211829 C31.2429367,6.60820787 32.0832872,6.85465199 32.8430675,7.22145805 C33.6028479,7.5882641 34.224477,8.09834611 34.7079736,8.75171939 C35.1914702,9.40509268 35.4332148,10.2705127 35.4332148,11.3480055 L35.4332148,20.5983494 C35.4332148,21.4007376 35.4792614,22.1687263 35.571356,22.9023384 C35.6634506,23.6359505 35.8246137,24.1861513 36.0548502,24.5529574 L31.0817674,24.5529574 C30.9896728,24.2778528 30.9148471,23.9970211 30.857288,23.7104539 C30.7997288,23.4238867 30.7594381,23.1315925 30.7364144,22.8335626 C29.9536104,23.6359508 29.0326784,24.1976142 27.9735907,24.5185695 C26.9145029,24.8395248 25.8324078,25 24.7272727,25 C23.8753978,25 23.0810939,24.8968373 22.3443372,24.6905089 C21.6075805,24.4841805 20.9629281,24.1632301 20.4103606,23.7276479 C19.8577931,23.2920657 19.4261062,22.7418649 19.1152869,22.0770289 C18.8044677,21.4121929 18.6490604,20.6212792 18.6490604,19.7042641 C18.6490604,18.6955475 18.827491,17.864515 19.1843575,17.2111417 C19.5412241,16.5577684 20.0016901,16.0362239 20.5657694,15.6464924 C21.1298488,15.256761 21.7745012,14.9644668 22.4997461,14.7696011 C23.2249909,14.5747354 23.9559807,14.4199914 24.6927374,14.3053645 C25.4294941,14.1907376 26.1547281,14.0990375 26.8684611,14.0302613 C27.5821942,13.9614852 28.215335,13.8583226 28.7679025,13.7207703 C29.32047,13.583218 29.7579127,13.382624 30.0802438,13.1189821 C30.4025748,12.8553403 30.5522263,12.4713459 30.5292026,11.9669876 C30.5292026,11.4397039 30.4428653,11.021322 30.2701879,10.7118294 C30.0975106,10.4023368 29.8672776,10.161624 29.579482,9.98968363 C29.2916864,9.81774329 28.9578485,9.70311812 28.5779584,9.64580468 C28.1980682,9.58849123 27.7894046,9.55983494 27.3519553,9.55983494 C26.3849622,9.55983494 25.6251932,9.76616025 25.0726257,10.1788171 C24.5200582,10.5914739 24.197732,11.2792249 24.1056374,12.2420908 L19.2016252,12.2420908 Z M30.5292026,15.8528198 C30.3219898,16.0362228 30.0629777,16.1795043 29.7521585,16.2826685 C29.4413392,16.3858327 29.1075014,16.4718016 28.7506348,16.5405777 C28.3937683,16.6093539 28.0196397,16.6666664 27.6282377,16.7125172 C27.2368357,16.758368 26.8454396,16.8156805 26.4540376,16.8844567 C26.0856592,16.9532328 25.7230422,17.0449329 25.3661757,17.1595598 C25.0093092,17.2741867 24.6984946,17.4289307 24.4337227,17.6237964 C24.1689508,17.8186621 23.9559852,18.0651063 23.7948197,18.3631362 C23.6336542,18.6611661 23.5530726,19.0394292 23.5530726,19.4979367 C23.5530726,19.9335189 23.6336542,20.3003195 23.7948197,20.5983494 C23.9559852,20.8963793 24.1747066,21.1313609 24.4509904,21.3033012 C24.7272741,21.4752416 25.0496003,21.595598 25.4179787,21.6643741 C25.786357,21.7331503 26.1662415,21.7675378 26.5576435,21.7675378 C27.5246366,21.7675378 28.2728939,21.6070626 28.8024378,21.2861073 C29.3319817,20.965152 29.7233778,20.5811577 29.9766379,20.1341128 C30.229898,19.6870679 30.3853053,19.2342985 30.4428644,18.7757909 C30.5004235,18.3172834 30.5292026,17.9504828 30.5292026,17.6753783 L30.5292026,15.8528198 Z M45.448451,6.77441541 L49.0401219,6.77441541 L49.0401219,10.0412655 L45.448451,10.0412655 L45.448451,18.8445667 C45.448451,19.6698803 45.5865908,20.2200812 45.8628746,20.4951857 C46.1391583,20.7702902 46.6917175,20.9078404 47.5205688,20.9078404 C47.7968526,20.9078404 48.0616205,20.8963779 48.3148807,20.8734525 C48.5681408,20.8505272 48.8098854,20.8161396 49.0401219,20.7702889 L49.0401219,24.5529574 C48.6256963,24.6217335 48.1652302,24.6675836 47.65871,24.6905089 C47.1521898,24.7134343 46.6571888,24.7248968 46.1736922,24.7248968 C45.4139119,24.7248968 44.6944337,24.6733155 44.0152362,24.5701513 C43.3360386,24.4669871 42.7374328,24.2663931 42.2194007,23.9683631 C41.7013687,23.6703332 41.2927051,23.2462201 40.9933977,22.696011 C40.6940903,22.1458019 40.5444388,21.4236633 40.5444388,20.5295736 L40.5444388,10.0412655 L37.5744033,10.0412655 L37.5744033,6.77441541 L40.5444388,6.77441541 L40.5444388,1.44429161 L45.448451,1.44429161 L45.448451,6.77441541 Z M50.801422,9.73177442 C50.7553747,8.35625172 50.9165379,7.07818105 51.2849162,5.89752407 C51.6532945,4.71686709 52.2058538,3.68524054 52.9426105,2.80261348 C53.6793672,1.91998642 54.606055,1.23223539 55.7227019,0.739339752 C56.8393487,0.24644412 58.1228978,0 59.5733875,0 C60.6785225,0 61.7318386,0.171937758 62.7333672,0.515818432 C63.7348958,0.859699106 64.6155371,1.35258735 65.3753174,1.99449794 C66.1350978,2.63640853 66.7394594,3.42732221 67.1884205,4.36726272 C67.6373816,5.30720323 67.8618588,6.36175481 67.8618588,7.53094911 C67.8618588,8.74599415 67.6661608,9.78908322 67.2747588,10.6602476 C66.8833568,11.531412 66.3653325,12.3051319 65.7206704,12.9814305 C65.0760083,13.6577292 64.3450185,14.2709739 63.527679,14.8211829 C62.7103396,15.371392 61.8872566,15.9158616 61.0584053,16.454608 C60.229554,16.9933544 59.4237385,17.5722115 58.6409345,18.1911967 C57.8581305,18.8101819 57.1674315,19.5323205 56.5688167,20.3576341 L68,20.3576341 L68,24.5529574 L50.2488573,24.5529574 C50.2488573,23.1545093 50.4503112,21.9394825 50.853225,20.9078404 C51.2561388,19.8761984 51.8029422,18.9534658 52.4936516,18.1396149 C53.184361,17.3257639 53.9959324,16.5749691 54.92839,15.8872077 C55.8608477,15.1994464 56.8450939,14.5002328 57.8811579,13.7895461 C58.4107018,13.42274 58.9747727,13.0502082 59.5733875,12.6719395 C60.1720023,12.2936707 60.7188057,11.8752889 61.2138141,11.4167813 C61.7088225,10.9582737 62.1232419,10.4424605 62.4570848,9.869326 C62.7909277,9.29619154 62.9578466,8.64282806 62.9578466,7.90921596 C62.9578466,6.74002166 62.6182529,5.82875155 61.9390554,5.17537827 C61.2598578,4.52200499 60.3907282,4.19532325 59.3316404,4.19532325 C58.6179074,4.19532325 58.0135457,4.36152975 57.5185373,4.69394773 C57.0235289,5.02636572 56.626377,5.46194137 56.3270696,6.00068776 C56.0277622,6.53943415 55.8147966,7.13548504 55.6881666,7.78885832 C55.5615365,8.4422316 55.4982224,9.08986382 55.4982224,9.73177442 L50.801422,9.73177442 Z"></path>
                <path d="M72,22.9325997 L74.0953289,22.9325997 L74.0953289,24.8390646 L72,24.8390646 L72,22.9325997 Z M77.5786463,17.4484182 L75.6835081,17.4484182 L75.6835081,16 L77.5786463,16 L77.5786463,17.4484182 Z M75.6835081,18.4387895 L77.5786463,18.4387895 L77.5786463,24.8390646 L75.6835081,24.8390646 L75.6835081,18.4387895 Z M80.7550048,21.6451169 C80.7550048,21.9009641 80.7816966,22.1506178 80.835081,22.3940853 C80.8884655,22.6375528 80.9796625,22.8562576 81.1086749,23.0502063 C81.2376873,23.244155 81.4089598,23.398899 81.6224976,23.5144429 C81.8360354,23.6299868 82.1029536,23.6877579 82.4232602,23.6877579 C82.7435669,23.6877579 83.0127094,23.6299868 83.2306959,23.5144429 C83.4486824,23.398899 83.6221792,23.244155 83.7511916,23.0502063 C83.880204,22.8562576 83.9714011,22.6375528 84.0247855,22.3940853 C84.07817,22.1506178 84.1048618,21.9009641 84.1048618,21.6451169 C84.1048618,21.3892697 84.07817,21.1375528 84.0247855,20.8899587 C83.9714011,20.6423646 83.880204,20.4236598 83.7511916,20.2338377 C83.6221792,20.0440156 83.4486824,19.8892716 83.2306959,19.7696011 C83.0127094,19.6499306 82.7435669,19.5900963 82.4232602,19.5900963 C82.1029536,19.5900963 81.8360354,19.6499306 81.6224976,19.7696011 C81.4089598,19.8892716 81.2376873,20.0440156 81.1086749,20.2338377 C80.9796625,20.4236598 80.8884655,20.6423646 80.835081,20.8899587 C80.7816966,21.1375528 80.7550048,21.3892697 80.7550048,21.6451169 Z M78.8598665,21.6451169 C78.8598665,21.1334225 78.9443906,20.6691905 79.1134414,20.2524072 C79.2824921,19.8356238 79.5227185,19.4807442 79.8341277,19.1877579 C80.145537,18.8947716 80.5192225,18.6678137 80.9551954,18.5068776 C81.3911684,18.3459414 81.8805184,18.2654746 82.4232602,18.2654746 C82.9660021,18.2654746 83.4575764,18.3459414 83.8979981,18.5068776 C84.3384197,18.6678137 84.7143296,18.8947716 85.0257388,19.1877579 C85.337148,19.4807442 85.5773744,19.8356238 85.7464252,20.2524072 C85.9154759,20.6691905 86,21.1334225 86,21.6451169 C86,22.1568114 85.9154759,22.6189801 85.7464252,23.0316369 C85.5773744,23.4442937 85.337148,23.79711 85.0257388,24.0900963 C84.7143296,24.3830826 84.3384197,24.6079772 83.8979981,24.7647868 C83.4575764,24.9215964 82.9660021,25 82.4232602,25 C81.8805184,25 81.3911684,24.9215964 80.9551954,24.7647868 C80.5192225,24.6079772 80.145537,24.3830826 79.8341277,24.0900963 C79.5227185,23.79711 79.2824921,23.4442937 79.1134414,23.0316369 C78.9443906,22.6189801 78.8598665,22.1568114 78.8598665,21.6451169 Z" id=".io"></path>
            </g>
        </g>
    </g>
</svg>